<svg width="90" height="90" viewBox="0 0 90 90" fill="none" xmlns="http://www.w3.org/2000/svg">
<path d="M39.9279 20.7693H48.3413L52.6683 21.1391L56.1538 21.7555L60.7212 22.8649L64.9279 23.8511L65.2885 24.9606L65.649 27.0563L65.7692 28.289V32.7269L65.4087 36.3018L64.8077 39.3837L63.8462 42.3423L62.7644 44.8077L61.2019 47.8896L59.7596 50.2318L58.4375 52.2042L56.9952 54.1766L55.6731 55.7791L54.2308 57.3817L52.5481 58.9843L50.625 60.4636L48.3413 61.9429L46.4183 63.0523L44.4952 64.0385H43.774L41.1298 62.6825L38.4856 61.0799L36.3221 59.4774L34.6394 57.9981L32.5962 55.9024L31.5144 54.5464L29.7115 52.0809L28.75 50.6016L27.3077 48.2594L26.1058 46.0405L25.024 43.9448L23.9423 41.2328L23.2212 38.5208L22.7404 35.8087L22.5 33.4665V27.7959L22.8606 25.3304L23.101 24.0977L23.3413 23.8511L27.9087 22.7417L31.5144 21.8788L34.7596 21.2624L37.8846 20.8926L39.9279 20.7693ZM40.5288 23.4813L37.1635 23.7279L33.5577 24.221L27.3077 25.4537L25.9856 25.8235L25.7452 26.3166L25.5048 32.7269L25.625 35.0691L25.7452 35.4389H25.9856L26.4663 34.3294L27.7885 32.8502L28.5096 31.9872L28.3894 31.2476L27.5481 29.8916L27.4279 29.5218L29.5913 29.1519L31.875 29.0287V28.6588L30.3125 27.5494L30.1923 27.3028L31.9952 27.0563H36.4423L39.5673 27.4261L39.3269 26.933L36.8029 25.4537L35.601 24.8373H35.3606V24.5908H39.9279L43.0529 24.9606L46.0577 25.7003L48.5817 26.6864L50.5048 27.7959L52.4279 29.2752L53.0288 29.8916H53.2692L53.5096 30.3847L54.2308 31.2476L55.0721 32.9734L57.7163 34.3294L59.1587 35.4389L60.1202 36.5484L60.601 37.5346L60.7212 38.0277V39.8768L60.2404 41.3561L59.7596 41.9724L59.1587 41.7259L57.8365 40.7397L55.9135 39.7535L55.4327 39.6302H53.149L51.1058 40.2466L49.1827 41.2328L47.8606 42.3423L47.0192 43.2052L46.1779 44.5612L45.5769 46.0405L45.0962 48.0129L44.8558 49.7387V53.8068L45.5769 58.4912L45.8173 60.3403L46.4183 60.217L48.2212 58.9843L50.2644 57.505L51.8269 56.149L53.2692 54.793L54.5913 53.4369L55.6731 52.0809L56.875 50.4784L58.1971 48.3827L59.2788 46.4103L60.4808 43.575L61.4423 40.6164L62.1635 37.4113L62.524 34.576L62.6442 32.9734V29.2752L62.4038 26.3166L62.1635 25.8235L60.2404 25.3304L55.3125 24.3442L52.1875 23.8511L47.7404 23.4813H40.5288ZM39.5673 25.8235L40.1683 26.4399L41.3702 27.5494L41.851 28.289L42.0913 29.2752L39.4471 28.5356L37.8846 28.289L35.7212 28.1657H33.9183V28.4123L35.8413 29.3985L36.9231 30.1381L37.0433 30.5079L35.8413 30.6312L33.4375 31.3709L30.5529 32.7269L28.3894 33.9596L27.7885 34.576L31.1538 34.8225L33.7981 35.3156L35.9615 35.932L37.6442 36.7949L38.2452 37.5346V37.6578L36.6827 37.9044L34.7596 38.8906L33.4375 39.7535L32.2356 40.863L31.3942 42.219L30.9135 43.575L30.7933 44.3147V47.2732L31.3942 47.15L35.3606 45.0543L35.7212 44.931L35.8413 47.6431L36.2019 52.574L36.5625 54.5464L37.0433 55.7791L37.8846 56.8886L39.0865 57.7515L40.5288 58.4912L42.6923 59.2308L43.774 59.3541V58.3679L43.0529 54.793L42.9327 53.93V49.9853L43.2933 48.0129L44.1346 45.5474L45.2163 43.4517L46.2981 41.9724L47.0192 41.1095L48.7019 39.7535L50.2644 38.7673L51.8269 38.2742H54.4712L56.5144 38.7673L58.5577 39.7535L59.2788 40.3699L59.7596 40.2466L59.8798 39.8768V38.5208L59.399 37.4113L58.3173 36.1786L56.9952 35.1924L54.8317 34.2062L53.149 31.7407L52.3077 30.8778L50.625 29.645L48.7019 28.5356L46.4183 27.4261L44.0144 26.5632L41.7308 25.9468L40.7692 25.8235H39.5673Z" fill="#3666F7"/>
<path d="M10.5024 67.5H12.7373L14.6193 70.8284L15.7955 72.8254L16.3836 73.8905L16.8541 73.2249L18.0304 71.2278L19.9124 67.8994L20.1476 67.5H22.5002V81.213L22.3825 81.3462H20.3829L20.2653 71.6272L19.4419 73.0917L18.6185 74.4231L16.6189 77.7515H16.266L15.0898 75.8876L13.2078 72.6923L12.6196 71.7604L12.502 81.213L12.3844 81.3462H10.5024L10.3848 81.213V67.6331L10.5024 67.5Z" fill="#3666F7"/>
<path d="M67.6176 67.5H69.8525L71.7345 70.8284L73.4989 73.8905L73.8518 73.4911L75.4985 70.5621L77.0276 67.8994L77.2629 67.5H79.4978L79.6154 67.6331V81.213L79.4978 81.3462H77.4981L77.3805 71.6272L75.7338 74.4231L73.9694 77.3521L73.4989 77.8846L72.205 75.8876L70.5583 73.0917L69.7349 71.7604L69.6173 81.213L69.4996 81.3462H67.6176L67.5 81.213V67.6331L67.6176 67.5Z" fill="#3666F7"/>
<path d="M57.0181 67.5H58.943L59.7356 69.3462L61.2075 73.3022L63.2456 78.7088L64.0382 80.9506V81.3462H62.0001L61.2075 79.3681L60.8679 78.4451V78.0495L55.2065 78.1813L54.0742 81.2143L53.961 81.3462H51.9229L52.2625 80.1593L54.4139 74.489L55.8858 70.533L57.0181 67.5ZM57.9239 70.4011L56.452 74.2253L55.9991 75.544V75.8077H59.962L59.8488 75.1484L58.3768 71.1923L58.0372 70.4011H57.9239Z" fill="#3666F7"/>
<path d="M30.0536 67.5H32.2535L33.1593 69.3462L34.8415 73.3022L37.1708 78.7088L38.0766 80.9506V81.3462H35.7474L34.8415 79.3681L34.4533 78.4451V78.0495L27.9832 78.1813L26.6891 81.2143L26.5597 81.3462H24.2305L24.6187 80.1593L27.0773 74.489L28.7596 70.533L30.0536 67.5ZM31.0888 70.4011L30.183 72.3791L28.889 75.544V75.8077H33.4181L33.2887 75.1484L31.3477 70.533L31.0888 70.4011Z" fill="#3666F7"/>
<path d="M40.052 67.5H50.0701L50.1922 67.6331V69.3639L48.7262 71.2278L47.6266 72.6923L44.9388 76.1538L43.8393 77.6183L42.9841 78.8166H42.7397V79.0828H50.0701L50.1922 79.216V81.213L50.0701 81.3462H39.8076V79.4822L40.9072 78.0178L42.3732 76.1538L43.7171 74.4231L44.8167 72.9586L46.1606 71.2278L47.1379 69.8964L40.052 69.7633V67.5Z" fill="#3666F7"/>
<path d="M44.0738 10.3845H44.3164L45.529 12.548L45.7715 13.1249L45.4077 14.1345V15.8653L45.7715 16.7307L46.3779 17.4518L47.4692 17.8845L48.5606 17.5961L49.1669 17.1634L49.652 16.298L49.7732 15.8653L49.8945 13.9903L52.5623 11.9711L53.4112 11.3941H53.6537L53.4112 12.1153L52.5623 13.5576L51.7135 15.7211L51.1071 18.0288L50.8646 19.0384H37.5256L37.283 18.3172L36.798 16.298L35.9491 13.9903L35.1003 12.2595L34.6152 11.3941L35.2216 11.5384L37.8894 13.5576L38.4957 14.1345V15.4326L38.8595 16.5864L39.4658 17.4518L39.9509 17.7403L40.7997 17.8845L41.7698 17.5961L42.6187 16.7307L42.9825 15.5768V14.2788L42.6187 13.2691L42.7399 12.6922L43.71 10.9614L44.0738 10.3845Z" fill="#3666F7"/>
<path d="M43.1472 8.65381L43.7581 9.29012L45.3463 11.5808L46.6902 13.8716L45.9572 15.1442L46.0793 16.1623L46.3237 16.4168L47.1789 16.2896L47.4232 15.9078L47.3011 14.6351L47.1789 13.8716L48.8893 12.8535L50.9662 11.4536L52.4323 10.69H53.654L53.5318 11.1991L53.4097 11.4536L52.3101 11.7081L49.8667 13.2353L48.6449 14.1261L48.2784 14.2534L48.4006 15.9078L47.9119 16.9259L47.3011 17.3077H46.0793L45.2241 16.5441L44.9798 15.7805L45.102 14.7624L45.4685 14.1261L45.3463 13.3625L43.3916 10.3082L43.025 10.4355L41.6811 12.4717L40.9481 13.7443L41.1925 14.3806L41.4368 14.8897V16.1623L40.9481 16.9259L40.3373 17.3077H39.2377L38.5047 16.7986L38.1382 16.035V14.8897L38.3825 14.2534L37.6495 13.9988L35.8169 12.7262L34.1065 11.7081L33.0069 11.3263L32.8848 10.69H34.1065L35.5725 11.4536L38.016 13.108L39.3599 13.8716L39.1155 14.8897V16.035L39.4821 16.4168L40.3373 16.2896L40.4594 16.035V14.8897L39.8486 13.9988L40.0929 13.3625L41.3146 11.3263L42.6585 9.41738L43.1472 8.65381Z" fill="#3666F7"/>
<path d="M45.0911 31.1538L46.1842 31.3461L47.3684 31.8269L48.4615 32.5L48.3704 32.6923L47.2773 32.8846H46.2753L45.5466 31.923L45 31.25L45.0911 31.1538Z" fill="#3666F7"/>
</svg>
