<svg width="424" height="191" viewBox="0 0 424 191" fill="none" xmlns="http://www.w3.org/2000/svg">
<path fill-rule="evenodd" clip-rule="evenodd" d="M90.5833 177.25H268.792C269.8 177.25 270.783 177.141 271.729 176.935C272.676 177.141 273.658 177.25 274.667 177.25H376.5C384.071 177.25 390.208 171.113 390.208 163.542C390.208 155.971 384.071 149.833 376.5 149.833H364.75C357.179 149.833 351.042 143.696 351.042 136.125C351.042 128.554 357.179 122.417 364.75 122.417H401.958C409.529 122.417 415.667 116.279 415.667 108.708C415.667 101.138 409.529 95.0001 401.958 95.0001H358.875C366.446 95.0001 372.583 88.8626 372.583 81.2917C372.583 73.7208 366.446 67.5834 358.875 67.5834H233.542C241.113 67.5834 247.25 61.446 247.25 53.8751C247.25 46.3042 241.113 40.1667 233.542 40.1667H121.917C114.346 40.1667 108.208 46.3042 108.208 53.8751C108.208 61.446 114.346 67.5834 121.917 67.5834H43.5833C36.0124 67.5834 29.875 73.7208 29.875 81.2917C29.875 88.8626 36.0124 95.0001 43.5833 95.0001H92.5417C100.113 95.0001 106.25 101.138 106.25 108.708C106.25 116.279 100.113 122.417 92.5417 122.417H14.2083C6.63743 122.417 0.5 128.554 0.5 136.125C0.5 143.696 6.63743 149.833 14.2083 149.833H90.5833C83.0124 149.833 76.875 155.971 76.875 163.542C76.875 171.113 83.0124 177.25 90.5833 177.25ZM409.791 177.25C417.362 177.25 423.5 171.113 423.5 163.542C423.5 155.971 417.362 149.833 409.791 149.833C402.221 149.833 396.083 155.971 396.083 163.542C396.083 171.113 402.221 177.25 409.791 177.25Z" fill="#DBE5FE"/>
<path fill-rule="evenodd" clip-rule="evenodd" d="M147.375 189C123.581 189 104.292 170.149 104.292 146.896C104.292 123.642 123.581 104.792 147.375 104.792C148.387 104.792 149.391 104.826 150.385 104.893C149.694 101.047 149.334 97.0863 149.334 93.0416C149.334 56.2686 179.144 26.4583 215.917 26.4583C245.274 26.4583 270.194 45.458 279.051 71.8318C281.149 71.6124 283.28 71.4999 285.438 71.4999C318.425 71.4999 345.167 97.8032 345.167 130.25C345.167 161.075 321.031 186.508 290.334 188.957V189H179.703H147.375ZM170.867 189H157.228H170.867Z" fill="white"/>
<path d="M170.867 189H157.228M147.375 189C123.581 189 104.292 170.149 104.292 146.896C104.292 123.642 123.581 104.792 147.375 104.792C148.387 104.792 149.391 104.826 150.385 104.893C149.694 101.047 149.334 97.0863 149.334 93.0416C149.334 56.2686 179.144 26.4583 215.917 26.4583C245.274 26.4583 270.194 45.458 279.051 71.8318C281.149 71.6124 283.28 71.4999 285.438 71.4999C318.425 71.4999 345.167 97.8032 345.167 130.25C345.167 161.075 321.031 186.508 290.334 188.957V189H179.703H147.375Z" stroke="#3666F7" stroke-width="2.5" stroke-linecap="round"/>
<path fill-rule="evenodd" clip-rule="evenodd" d="M195.574 40.8376C195.574 103.941 252.406 155.939 325.583 162.96C316.413 174.236 302.251 181.886 286.117 183.088V183.125H154.705C138.761 183.125 112.125 176.407 112.125 146.99C112.125 117.574 132.833 110.856 154.705 110.856C155.635 110.856 156.558 110.885 157.472 110.943C156.837 107.642 156.725 104.24 156.505 100.772C155.02 77.3439 165.241 47.8177 195.61 38.2083C195.585 39.0843 195.574 39.9598 195.574 40.8376ZM216.144 139.568C210.194 139.568 205.37 144.335 205.37 150.215C205.37 156.095 210.194 160.862 216.144 160.862C222.095 160.862 226.919 156.095 226.919 150.215C226.919 144.335 222.095 139.568 216.144 139.568Z" fill="#EFF4FF"/>
<path d="M216.896 161.583C222.844 161.583 227.667 156.761 227.667 150.813C227.667 144.864 222.844 140.042 216.896 140.042C210.947 140.042 206.125 144.864 206.125 150.813C206.125 156.761 210.947 161.583 216.896 161.583Z" stroke="#3666F7" stroke-width="2.5"/>
<path d="M186.542 128.292L200.25 117.534L186.542 107.294" stroke="#3666F7" stroke-width="2.5" stroke-linecap="round" stroke-linejoin="round"/>
<path d="M247.25 128.292L233.542 117.534L247.25 107.294" stroke="#3666F7" stroke-width="2.5" stroke-linecap="round" stroke-linejoin="round"/>
<path d="M235.5 46.0417C248.247 49.4151 258.311 59.3836 261.821 72.0742" stroke="#92B7FE" stroke-width="2.5" stroke-linecap="round"/>
<path d="M276.625 12.75C279.87 12.75 282.5 10.1197 282.5 6.875C282.5 3.63033 279.87 1 276.625 1C273.38 1 270.75 3.63033 270.75 6.875C270.75 10.1197 273.38 12.75 276.625 12.75Z" stroke="#92B7FE" stroke-width="2"/>
<path d="M337.333 44.0833C340.578 44.0833 343.208 41.4529 343.208 38.2083C343.208 34.9636 340.578 32.3333 337.333 32.3333C334.088 32.3333 331.458 34.9636 331.458 38.2083C331.458 41.4529 334.088 44.0833 337.333 44.0833Z" fill="#92B7FE"/>
<path d="M291.817 27.9414L308.185 44.3096M308.434 27.9414L292.066 44.3096L308.434 27.9414Z" stroke="#92B7FE" stroke-width="2.5" stroke-linecap="round" stroke-linejoin="round"/>
<path d="M107.041 62.8757L118.791 74.6257M118.791 62.8757L107.041 74.6257L118.791 62.8757Z" stroke="#92B7FE" stroke-width="2.5" stroke-linecap="round" stroke-linejoin="round"/>
<path d="M133.667 49.9583C136.912 49.9583 139.542 47.3279 139.542 44.0833C139.542 40.8386 136.912 38.2083 133.667 38.2083C130.422 38.2083 127.792 40.8386 127.792 44.0833C127.792 47.3279 130.422 49.9583 133.667 49.9583Z" fill="#92B7FE"/>
</svg>
