<svg width="76" height="23" viewBox="0 0 76 23" fill="none" xmlns="http://www.w3.org/2000/svg">
<path d="M74.8569 19.8651C74.8569 21.024 73.8986 21.9627 72.7134 21.9627H2.56469C1.37997 21.9627 0.418335 21.024 0.418335 19.8651V3.13756C0.418335 1.97923 1.37997 1.03723 2.56469 1.03723H72.7128C73.8986 1.03723 74.8564 1.97923 74.8564 3.13756L74.8569 19.8651Z" fill="black"/>
<path d="M72.487 1.06243C73.7778 1.06243 74.8282 2.08653 74.8282 3.34509V19.6547C74.8282 20.9132 73.7778 21.9373 72.487 21.9373H2.78796C1.49714 21.9373 0.446771 20.9132 0.446771 19.6547V3.34509C0.446771 2.08653 1.49714 1.06243 2.78796 1.06243H72.487ZM72.487 0.626824H2.78796C1.25528 0.626824 0 1.85072 0 3.34509V19.6547C0 21.149 1.25528 22.3729 2.78796 22.3729H72.487C74.0197 22.3729 75.275 21.149 75.275 19.6547V3.34509C75.275 1.85072 74.0197 0.626824 72.487 0.626824Z" fill="#A6A6A6"/>
<path d="M16.7994 11.3825C16.7832 9.63032 18.2709 8.77787 18.3389 8.73818C17.4964 7.54052 16.1905 7.37688 15.7316 7.36383C14.6348 7.25129 13.5709 8.00371 13.0122 8.00371C12.4424 8.00371 11.582 7.3747 10.6547 7.39319C9.46149 7.41113 8.34519 8.08471 7.73296 9.1307C6.46945 11.2634 7.41178 14.3976 8.62232 16.1215C9.22786 16.9658 9.93545 17.9085 10.8616 17.8753C11.7677 17.8389 12.1062 17.3121 13.1996 17.3121C14.283 17.3121 14.6008 17.8753 15.5454 17.8541C16.5178 17.8389 17.1301 17.006 17.7144 16.1541C18.4142 15.1864 18.6952 14.2334 18.7064 14.1845C18.6835 14.1769 16.8178 13.4826 16.7994 11.3825Z" fill="white"/>
<path d="M15.0151 6.22977C15.5024 5.63556 15.8359 4.82715 15.7433 4.00677C15.038 4.03722 14.1559 4.48247 13.6479 5.06364C13.1985 5.57576 12.797 6.41516 12.9007 7.20454C13.6931 7.26217 14.5066 6.81474 15.0151 6.22977Z" fill="white"/>
<path d="M29.912 17.7542H28.6457L27.9521 15.629H25.541L24.8803 17.7542H23.6475L26.0362 10.5192H27.5116L29.912 17.7542ZM27.743 14.7374L27.1157 12.8482C27.0493 12.6552 26.925 12.2007 26.7415 11.4853H26.7192C26.6462 11.793 26.5285 12.2475 26.3668 12.8482L25.7507 14.7374H27.743Z" fill="white"/>
<path d="M36.0548 15.0814C36.0548 15.9687 35.8089 16.67 35.3171 17.1848C34.8766 17.6431 34.3296 17.872 33.6767 17.872C32.9719 17.872 32.4656 17.6252 32.1572 17.1316H32.1349V19.8797H30.9461V14.2546C30.9461 13.6968 30.9311 13.1243 30.9021 12.5372H31.9476L32.0139 13.364H32.0362C32.4327 12.741 33.0343 12.4301 33.8417 12.4301C34.4729 12.4301 34.9998 12.6731 35.4214 13.1596C35.844 13.6467 36.0548 14.2872 36.0548 15.0814ZM34.8437 15.1239C34.8437 14.6161 34.7266 14.1975 34.4913 13.868C34.2343 13.5244 33.8891 13.3526 33.4564 13.3526C33.1631 13.3526 32.8966 13.4483 32.6585 13.637C32.4199 13.8272 32.2637 14.0757 32.1907 14.3834C32.1539 14.5269 32.1355 14.6444 32.1355 14.7368V15.6066C32.1355 15.9861 32.2548 16.3063 32.4935 16.5678C32.7321 16.8293 33.0421 16.9598 33.4235 16.9598C33.8713 16.9598 34.2198 16.7912 34.469 16.4553C34.7188 16.1187 34.8437 15.6751 34.8437 15.1239Z" fill="white"/>
<path d="M42.209 15.0814C42.209 15.9687 41.9631 16.67 41.4708 17.1848C41.0308 17.6431 40.4838 17.872 39.8309 17.872C39.1261 17.872 38.6198 17.6252 38.312 17.1316H38.2897V19.8797H37.1009V14.2546C37.1009 13.6968 37.0859 13.1243 37.0569 12.5372H38.1024L38.1687 13.364H38.191C38.5869 12.741 39.1886 12.4301 39.9965 12.4301C40.6272 12.4301 41.1541 12.6731 41.5767 13.1596C41.9977 13.6467 42.209 14.2872 42.209 15.0814ZM40.9979 15.1239C40.9979 14.6161 40.8803 14.1975 40.645 13.868C40.3879 13.5244 40.0439 13.3526 39.6107 13.3526C39.3168 13.3526 39.0508 13.4483 38.8122 13.637C38.5735 13.8272 38.418 14.0757 38.3449 14.3834C38.3087 14.5269 38.2897 14.6444 38.2897 14.7368V15.6066C38.2897 15.9861 38.409 16.3063 38.6466 16.5678C38.8852 16.8287 39.1953 16.9598 39.5778 16.9598C40.0255 16.9598 40.374 16.7912 40.6232 16.4553C40.873 16.1187 40.9979 15.6751 40.9979 15.1239Z" fill="white"/>
<path d="M49.0899 15.7254C49.0899 16.3408 48.8708 16.8415 48.4309 17.228C47.9474 17.6504 47.2744 17.8614 46.4096 17.8614C45.6111 17.8614 44.971 17.7113 44.4865 17.4107L44.7619 16.4446C45.2838 16.7523 45.8565 16.9067 46.4804 16.9067C46.9281 16.9067 47.2766 16.8078 47.527 16.611C47.7762 16.4142 47.9006 16.15 47.9006 15.8205C47.9006 15.5269 47.798 15.2796 47.5922 15.079C47.3876 14.8783 47.0458 14.6919 46.5685 14.5195C45.2693 14.0471 44.6203 13.355 44.6203 12.445C44.6203 11.8502 44.8478 11.3625 45.3033 10.9831C45.7572 10.6031 46.3627 10.4133 47.12 10.4133C47.7952 10.4133 48.3561 10.528 48.8039 10.7569L48.5067 11.7018C48.0885 11.48 47.6157 11.3691 47.0865 11.3691C46.6683 11.3691 46.3416 11.4696 46.1074 11.6697C45.9094 11.8486 45.8102 12.0666 45.8102 12.3248C45.8102 12.6108 45.9234 12.8473 46.1509 13.0332C46.3488 13.205 46.7085 13.3909 47.2304 13.5915C47.8688 13.8421 48.3377 14.1352 48.6394 14.4712C48.9399 14.806 49.0899 15.2252 49.0899 15.7254Z" fill="white"/>
<path d="M53.0205 13.4071H51.7102V15.94C51.7102 16.5842 51.941 16.9061 52.4038 16.9061C52.6163 16.9061 52.7925 16.8882 52.9319 16.8523L52.9648 17.7324C52.7306 17.8178 52.4222 17.8607 52.0403 17.8607C51.5708 17.8607 51.2039 17.721 50.939 17.4421C50.6753 17.1627 50.5426 16.6941 50.5426 16.0357V13.4061H49.762V12.5362H50.5426V11.581L51.7102 11.2374V12.5362H53.0205V13.4071Z" fill="white"/>
<path d="M58.9325 15.1027C58.9325 15.9046 58.6972 16.563 58.2277 17.0778C57.7353 17.6079 57.0818 17.8721 56.2672 17.8721C55.4821 17.8721 54.857 17.6182 54.3909 17.1104C53.9247 16.6027 53.6917 15.9617 53.6917 15.1892C53.6917 14.3807 53.9314 13.7186 54.4126 13.2037C54.8927 12.6884 55.5406 12.4307 56.3553 12.4307C57.1404 12.4307 57.7721 12.6846 58.2488 13.1929C58.705 13.686 58.9325 14.3226 58.9325 15.1027ZM57.6991 15.1402C57.6991 14.6591 57.5937 14.2465 57.3801 13.9023C57.1309 13.4859 56.7746 13.2782 56.3129 13.2782C55.835 13.2782 55.472 13.4864 55.2228 13.9023C55.0092 14.247 54.9039 14.6662 54.9039 15.162C54.9039 15.6431 55.0092 16.0557 55.2228 16.3993C55.4798 16.8158 55.8389 17.0234 56.3023 17.0234C56.7562 17.0234 57.1125 16.8114 57.3695 16.3885C57.5887 16.0378 57.6991 15.6208 57.6991 15.1402Z" fill="white"/>
<path d="M62.7967 13.5565C62.679 13.5353 62.5535 13.5244 62.4219 13.5244C62.0038 13.5244 61.6803 13.6783 61.4528 13.9865C61.2549 14.2584 61.1557 14.6019 61.1557 15.0168V17.754H59.9674L59.9786 14.1801C59.9786 13.5788 59.9635 13.0313 59.934 12.5377H60.9694L61.0129 13.5358H61.0458C61.1713 13.1928 61.3692 12.9166 61.6402 12.7095C61.9051 12.523 62.1911 12.4301 62.4995 12.4301C62.6093 12.4301 62.7086 12.4377 62.7967 12.4513V13.5565Z" fill="white"/>
<path d="M68.1134 14.8989C68.1134 15.1065 68.0995 15.2816 68.0699 15.4246H64.5036C64.5175 15.94 64.6898 16.3341 65.021 16.6059C65.3216 16.8489 65.7102 16.9707 66.1875 16.9707C66.7155 16.9707 67.1973 16.8886 67.6305 16.7239L67.8168 17.5285C67.3105 17.7438 66.7127 17.8509 66.023 17.8509C65.1933 17.8509 64.542 17.6128 64.0681 17.1371C63.5953 16.6614 63.3583 16.0226 63.3583 15.2212C63.3583 14.4346 63.5785 13.7795 64.0196 13.257C64.4813 12.6992 65.1052 12.4203 65.8903 12.4203C66.6614 12.4203 67.2452 12.6992 67.6417 13.257C67.9556 13.7001 68.1134 14.2481 68.1134 14.8989ZM66.9798 14.5982C66.9876 14.2546 66.9101 13.9578 66.749 13.7072C66.5432 13.3848 66.2271 13.2239 65.8016 13.2239C65.413 13.2239 65.0968 13.381 64.8554 13.6963C64.6575 13.9469 64.5398 14.2476 64.5036 14.5977H66.9798V14.5982Z" fill="white"/>
<path d="M27.3498 6.06814C27.3498 6.70802 27.1529 7.1897 26.7598 7.51317C26.3957 7.81164 25.8783 7.96114 25.2081 7.96114C24.8757 7.96114 24.5914 7.94701 24.3533 7.91874V4.42251C24.6639 4.37358 24.9984 4.34857 25.3597 4.34857C25.9982 4.34857 26.4794 4.48394 26.8039 4.75468C27.1674 5.06076 27.3498 5.4984 27.3498 6.06814ZM26.7336 6.08391C26.7336 5.6691 26.621 5.35107 26.3957 5.12926C26.1705 4.90799 25.8415 4.79709 25.4082 4.79709C25.2242 4.79709 25.0675 4.80905 24.9376 4.83405V7.49197C25.0096 7.50284 25.1412 7.50774 25.3324 7.50774C25.7796 7.50774 26.1247 7.3865 26.3679 7.14403C26.611 6.90156 26.7336 6.54819 26.7336 6.08391Z" fill="white"/>
<path d="M30.6168 6.62695C30.6168 7.0211 30.5013 7.34403 30.2705 7.59737C30.0285 7.85778 29.7079 7.98771 29.3075 7.98771C28.9217 7.98771 28.6144 7.86322 28.3853 7.61314C28.1567 7.3636 28.0424 7.04883 28.0424 6.66936C28.0424 6.27249 28.16 5.94684 28.3964 5.69404C28.6328 5.44125 28.9507 5.31458 29.351 5.31458C29.7369 5.31458 30.0469 5.43907 30.2817 5.68861C30.5047 5.93108 30.6168 6.24422 30.6168 6.62695ZM30.0107 6.64544C30.0107 6.40895 29.9582 6.20616 29.854 6.03709C29.7313 5.83268 29.5568 5.73047 29.3298 5.73047C29.0951 5.73047 28.9167 5.83268 28.794 6.03709C28.6892 6.20616 28.6373 6.41221 28.6373 6.65577C28.6373 6.89225 28.6897 7.09504 28.794 7.26411C28.9206 7.46853 29.0968 7.57073 29.3243 7.57073C29.5473 7.57073 29.7224 7.4669 29.8484 7.25868C29.9566 7.08634 30.0107 6.88193 30.0107 6.64544Z" fill="white"/>
<path d="M34.9972 5.36682L34.1747 7.9296H33.6395L33.2988 6.81674C33.2123 6.53894 33.1421 6.26276 33.0874 5.98876H33.0768C33.0261 6.27037 32.9559 6.546 32.8655 6.81674L32.5036 7.9296H31.9622L31.1888 5.36682H31.7894L32.0866 6.58515C32.1585 6.87328 32.2176 7.14783 32.265 7.40769H32.2756C32.3191 7.19349 32.391 6.92058 32.4925 6.59058L32.8655 5.36737H33.3417L33.6991 6.56449C33.7855 6.85643 33.8558 7.1375 33.9099 7.40824H33.9261C33.9657 7.14457 34.0253 6.8635 34.1045 6.56449L34.4234 5.36737H34.9972V5.36682Z" fill="white"/>
<path d="M38.0266 7.92959H37.4423V6.46173C37.4423 6.00941 37.2661 5.78325 36.9126 5.78325C36.7391 5.78325 36.5992 5.84522 36.4905 5.96972C36.3828 6.09422 36.3282 6.241 36.3282 6.40899V7.92905H35.7438V6.09911C35.7438 5.87404 35.7366 5.62994 35.7227 5.36572H36.2362L36.2635 5.76639H36.2797C36.3477 5.6419 36.4492 5.53915 36.5825 5.45706C36.7408 5.36137 36.9181 5.31299 37.1122 5.31299C37.3575 5.31299 37.5616 5.39019 37.7238 5.54513C37.9257 5.73486 38.0266 6.01811 38.0266 6.39431V7.92959Z" fill="white"/>
<path d="M39.6382 7.92962H39.0544V4.19092H39.6382V7.92962Z" fill="white"/>
<path d="M43.0784 6.62695C43.0784 7.0211 42.963 7.34403 42.7322 7.59737C42.4902 7.85778 42.169 7.98771 41.7692 7.98771C41.3828 7.98771 41.0756 7.86322 40.8469 7.61314C40.6183 7.3636 40.504 7.04883 40.504 6.66936C40.504 6.27249 40.6217 5.94684 40.8581 5.69404C41.0945 5.44125 41.4123 5.31458 41.8121 5.31458C42.1986 5.31458 42.508 5.43907 42.7433 5.68861C42.9664 5.93108 43.0784 6.24422 43.0784 6.62695ZM42.4718 6.64544C42.4718 6.40895 42.4194 6.20616 42.3151 6.03709C42.193 5.83268 42.0179 5.73047 41.7915 5.73047C41.5562 5.73047 41.3778 5.83268 41.2557 6.03709C41.1508 6.20616 41.099 6.41221 41.099 6.65577C41.099 6.89225 41.1514 7.09504 41.2557 7.26411C41.3822 7.46853 41.5584 7.57073 41.7859 7.57073C42.009 7.57073 42.1835 7.4669 42.3095 7.25868C42.4182 7.08634 42.4718 6.88193 42.4718 6.64544Z" fill="white"/>
<path d="M45.9068 7.92954H45.3821L45.3386 7.63434H45.3224C45.1429 7.86974 44.8869 7.98771 44.5546 7.98771C44.3065 7.98771 44.1058 7.90997 43.9547 7.75557C43.8175 7.61531 43.7489 7.4408 43.7489 7.23367C43.7489 6.92052 43.8827 6.68186 44.152 6.51659C44.4208 6.35132 44.7988 6.27032 45.2856 6.27412V6.22628C45.2856 5.88867 45.1038 5.72014 44.7397 5.72014C44.4805 5.72014 44.2519 5.78375 44.0545 5.90987L43.9357 5.53584C44.1799 5.38851 44.4816 5.31458 44.8373 5.31458C45.5243 5.31458 45.8689 5.66795 45.8689 6.3747V7.31848C45.8689 7.57454 45.8817 7.77841 45.9068 7.92954ZM45.3001 7.04883V6.65359C44.6555 6.64272 44.3333 6.81506 44.3333 7.17006C44.3333 7.3038 44.3701 7.40383 44.4453 7.4707C44.5206 7.53757 44.6165 7.57073 44.7308 7.57073C44.8591 7.57073 44.9789 7.53105 45.0882 7.45222C45.1981 7.37284 45.2656 7.27227 45.2906 7.14886C45.2968 7.12113 45.3001 7.08743 45.3001 7.04883Z" fill="white"/>
<path d="M49.2272 7.92962H48.7086L48.6813 7.51807H48.6651C48.4995 7.83121 48.2174 7.98779 47.8209 7.98779C47.5042 7.98779 47.2405 7.86655 47.0314 7.62408C46.8223 7.38161 46.718 7.06684 46.718 6.6803C46.718 6.2655 46.8312 5.92952 47.0587 5.67291C47.279 5.43371 47.5488 5.3141 47.87 5.3141C48.223 5.3141 48.47 5.4299 48.6105 5.66204H48.6216V4.19092H49.2065V7.23918C49.2065 7.48871 49.2132 7.71868 49.2272 7.92962ZM48.6216 6.84883V6.42152C48.6216 6.34759 48.6161 6.28779 48.6055 6.24212C48.5726 6.10512 48.5018 5.98986 48.3941 5.8969C48.2854 5.80394 48.1544 5.75718 48.0033 5.75718C47.7852 5.75718 47.6146 5.84145 47.4892 6.01052C47.3648 6.1796 47.3018 6.39543 47.3018 6.6591C47.3018 6.91244 47.3615 7.11794 47.4814 7.27615C47.6079 7.44468 47.7786 7.52894 47.9921 7.52894C48.1839 7.52894 48.3373 7.45881 48.4538 7.31801C48.5664 7.18807 48.6216 7.0315 48.6216 6.84883Z" fill="white"/>
<path d="M54.2247 6.62695C54.2247 7.0211 54.1092 7.34403 53.8784 7.59737C53.6364 7.85778 53.3164 7.98771 52.9154 7.98771C52.5302 7.98771 52.2229 7.86322 51.9932 7.61314C51.7646 7.3636 51.6503 7.04883 51.6503 6.66936C51.6503 6.27249 51.7679 5.94684 52.0043 5.69404C52.2408 5.44125 52.5586 5.31458 52.9595 5.31458C53.3448 5.31458 53.6554 5.43907 53.8896 5.68861C54.1126 5.93108 54.2247 6.24422 54.2247 6.62695ZM53.6191 6.64544C53.6191 6.40895 53.5667 6.20616 53.4624 6.03709C53.3392 5.83268 53.1652 5.73047 52.9378 5.73047C52.7036 5.73047 52.5251 5.83268 52.4019 6.03709C52.2971 6.20616 52.2452 6.41221 52.2452 6.65577C52.2452 6.89225 52.2976 7.09504 52.4019 7.26411C52.5285 7.46853 52.7047 7.57073 52.9322 7.57073C53.1552 7.57073 53.3309 7.4669 53.4569 7.25868C53.5645 7.08634 53.6191 6.88193 53.6191 6.64544Z" fill="white"/>
<path d="M57.3668 7.92959H56.783V6.46173C56.783 6.00941 56.6068 5.78325 56.2527 5.78325C56.0793 5.78325 55.9393 5.84522 55.8312 5.96972C55.723 6.09422 55.6689 6.241 55.6689 6.40899V7.92905H55.084V6.09911C55.084 5.87404 55.0773 5.62994 55.0634 5.36572H55.5763L55.6037 5.76639H55.6198C55.6884 5.6419 55.7899 5.53915 55.9226 5.45706C56.0815 5.36137 56.2583 5.31299 56.4529 5.31299C56.6977 5.31299 56.9017 5.39019 57.064 5.54513C57.2664 5.73486 57.3668 6.01811 57.3668 6.39431V7.92959Z" fill="white"/>
<path d="M61.2995 5.79353H60.656V7.0385C60.656 7.3549 60.7703 7.5131 60.9967 7.5131C61.1015 7.5131 61.1885 7.50441 61.2571 7.48647L61.2721 7.91867C61.1567 7.96107 61.005 7.98228 60.8182 7.98228C60.5874 7.98228 60.4079 7.91378 60.2779 7.77678C60.1475 7.63978 60.0828 7.40927 60.0828 7.08579V5.79353H59.6986V5.36676H60.0828V4.89705L60.6554 4.72852V5.36622H61.2989V5.79353H61.2995Z" fill="white"/>
<path d="M64.3928 7.92962H63.8079V6.47263C63.8079 6.01324 63.6317 5.78328 63.2787 5.78328C63.0077 5.78328 62.8226 5.91647 62.7211 6.18286C62.7038 6.23886 62.6938 6.30736 62.6938 6.38782V7.92907H62.11V4.19092H62.6938V5.73543H62.7049C62.8889 5.45437 63.1527 5.3141 63.4945 5.3141C63.7365 5.3141 63.9367 5.3913 64.0956 5.54624C64.2935 5.73924 64.3928 6.02629 64.3928 6.40576V7.92962Z" fill="white"/>
<path d="M67.5839 6.52693C67.5839 6.62914 67.5761 6.71503 67.5622 6.78517H65.8097C65.8175 7.03851 65.9011 7.2315 66.0634 7.36524C66.2117 7.48485 66.403 7.54465 66.6371 7.54465C66.8964 7.54465 67.1328 7.50442 67.3458 7.42341L67.4373 7.81919C67.188 7.92466 66.8948 7.97739 66.5552 7.97739C66.1481 7.97739 65.8275 7.86051 65.5956 7.62674C65.3625 7.39297 65.2471 7.07928 65.2471 6.68568C65.2471 6.29914 65.3547 5.9773 65.5716 5.72069C65.798 5.44669 66.1041 5.30969 66.4905 5.30969C66.8685 5.30969 67.1557 5.44669 67.3498 5.72069C67.5064 5.93815 67.5839 6.20726 67.5839 6.52693ZM67.0263 6.3796C67.0308 6.21052 66.9923 6.06483 66.9132 5.94196C66.8117 5.78376 66.6572 5.70438 66.4481 5.70438C66.2574 5.70438 66.1019 5.78158 65.9831 5.93652C65.8861 6.05993 65.8286 6.20726 65.8097 6.3796H67.0263Z" fill="white"/>
</svg>
