<svg width="76" height="23" viewBox="0 0 76 23" fill="none" xmlns="http://www.w3.org/2000/svg">
<path d="M72.6624 22.373H3.05915C1.52858 22.373 0.275024 21.1491 0.275024 19.6548V3.34521C0.275024 1.85085 1.52858 0.626948 3.05915 0.626948H72.6624C74.193 0.626948 75.4465 1.85085 75.4465 3.34521V19.6548C75.4465 21.1491 74.193 22.373 72.6624 22.373Z" fill="black"/>
<path d="M72.6624 1.06255C73.9514 1.06255 75.0004 2.08665 75.0004 3.34521V19.6548C75.0004 20.9133 73.9514 21.9374 72.6624 21.9374H3.05915C1.7701 21.9374 0.721181 20.9133 0.721181 19.6548V3.34521C0.721181 2.08665 1.7701 1.06255 3.05915 1.06255H72.6624ZM72.6624 0.626948H3.05915C1.52858 0.626948 0.275024 1.85085 0.275024 3.34521V19.6548C0.275024 21.1491 1.52858 22.373 3.05915 22.373H72.6624C74.193 22.373 75.4465 21.1491 75.4465 19.6548V3.34521C75.4465 1.85085 74.193 0.626948 72.6624 0.626948Z" fill="#A6A6A6"/>
<path d="M26.6785 6.19594C26.6785 6.64989 26.5393 7.01345 26.2651 7.2846C25.9498 7.60603 25.5391 7.76777 25.0359 7.76777C24.5549 7.76777 24.1443 7.60332 23.8074 7.27916C23.4698 6.95025 23.3014 6.54659 23.3014 6.06342C23.3014 5.58025 23.4698 5.17659 23.8074 4.8504C24.1443 4.52353 24.5549 4.35907 25.0359 4.35907C25.2753 4.35907 25.5036 4.40732 25.7215 4.49702C25.9387 4.5874 26.1154 4.70973 26.2435 4.86059L25.9526 5.14737C25.7292 4.88981 25.425 4.76273 25.0359 4.76273C24.6851 4.76273 24.3809 4.88234 24.1227 5.12358C23.8673 5.36551 23.7392 5.67879 23.7392 6.06342C23.7392 6.44805 23.8673 6.76405 24.1227 7.00598C24.3809 7.2445 24.6851 7.36683 25.0359 7.36683C25.4083 7.36683 25.7215 7.2445 25.9686 7.00326C26.1315 6.84356 26.224 6.62338 26.2484 6.34204H25.0359V5.94925H26.6535C26.673 6.0342 26.6785 6.11643 26.6785 6.19594Z" fill="white" stroke="white" stroke-width="0.16" stroke-miterlimit="10"/>
<path d="M29.2444 4.83416H27.7249V5.8671H29.0947V6.25989H27.7249V7.29283H29.2444V7.69309H27.2948V4.4339H29.2444V4.83416Z" fill="white" stroke="white" stroke-width="0.16" stroke-miterlimit="10"/>
<path d="M31.0559 7.69309H30.6257V4.83416H29.6937V4.4339H31.9885V4.83416H31.0559V7.69309Z" fill="white" stroke="white" stroke-width="0.16" stroke-miterlimit="10"/>
<path d="M33.649 7.69309V4.4339H34.0785V7.69309H33.649Z" fill="white" stroke="white" stroke-width="0.16" stroke-miterlimit="10"/>
<path d="M35.9822 7.69309H35.5556V4.83416H34.6201V4.4339H36.9177V4.83416H35.9822V7.69309Z" fill="white" stroke="white" stroke-width="0.16" stroke-miterlimit="10"/>
<path d="M41.2622 7.27373C40.933 7.60332 40.5251 7.76777 40.0386 7.76777C39.5493 7.76777 39.1414 7.60332 38.8122 7.27373C38.4836 6.94482 38.3201 6.54115 38.3201 6.06342C38.3201 5.58569 38.4836 5.18202 38.8122 4.85311C39.1414 4.52352 39.5493 4.35907 40.0386 4.35907C40.5223 4.35907 40.9302 4.52352 41.2594 4.85583C41.5907 5.18746 41.7543 5.5884 41.7543 6.06342C41.7543 6.54115 41.5907 6.94482 41.2622 7.27373ZM39.1303 7.00054C39.378 7.24451 39.6794 7.36683 40.0386 7.36683C40.3949 7.36683 40.6991 7.24451 40.9441 7.00054C41.1912 6.75658 41.3165 6.4433 41.3165 6.06342C41.3165 5.68354 41.1912 5.37026 40.9441 5.1263C40.6991 4.88234 40.3949 4.76001 40.0386 4.76001C39.6794 4.76001 39.378 4.88234 39.1303 5.1263C38.8832 5.37026 38.7579 5.68354 38.7579 6.06342C38.7579 6.4433 38.8832 6.75658 39.1303 7.00054Z" fill="white" stroke="white" stroke-width="0.16" stroke-miterlimit="10"/>
<path d="M42.3579 7.69309V4.4339H42.8799L44.5031 6.96868H44.5219L44.5031 6.34212V4.4339H44.9325V7.69309H44.4843L42.7846 5.03328H42.7658L42.7846 5.66255V7.69309H42.3579Z" fill="white" stroke="white" stroke-width="0.16" stroke-miterlimit="10"/>
<path d="M38.2144 12.4529C36.9065 12.4529 35.8381 13.4246 35.8381 14.7654C35.8381 16.0953 36.9065 17.0773 38.2144 17.0773C39.525 17.0773 40.5934 16.0953 40.5934 14.7654C40.5934 13.4246 39.525 12.4529 38.2144 12.4529ZM38.2144 16.1667C37.4968 16.1667 36.8794 15.5884 36.8794 14.7654C36.8794 13.9316 37.4968 13.3635 38.2144 13.3635C38.932 13.3635 39.5522 13.9316 39.5522 14.7654C39.5522 15.5884 38.932 16.1667 38.2144 16.1667ZM33.0296 12.4529C31.719 12.4529 30.6534 13.4246 30.6534 14.7654C30.6534 16.0953 31.719 17.0773 33.0296 17.0773C34.3396 17.0773 35.4059 16.0953 35.4059 14.7654C35.4059 13.4246 34.3396 12.4529 33.0296 12.4529ZM33.0296 16.1667C32.3113 16.1667 31.6919 15.5884 31.6919 14.7654C31.6919 13.9316 32.3113 13.3635 33.0296 13.3635C33.7473 13.3635 34.3646 13.9316 34.3646 14.7654C34.3646 15.5884 33.7473 16.1667 33.0296 16.1667ZM26.86 13.1617V14.1443H29.2634C29.1931 14.6934 29.0052 15.0971 28.717 15.3784C28.3662 15.7182 27.8198 16.0953 26.86 16.0953C25.3809 16.0953 24.2228 14.9299 24.2228 13.4858C24.2228 12.0417 25.3809 10.8763 26.86 10.8763C27.6598 10.8763 28.2416 11.1814 28.6711 11.5769L29.3804 10.8844C28.7797 10.3245 27.9806 9.8943 26.86 9.8943C24.8318 9.8943 23.1272 11.5056 23.1272 13.4858C23.1272 15.4661 24.8318 17.0773 26.86 17.0773C27.9563 17.0773 28.7797 16.7267 29.427 16.0688C30.0903 15.4212 30.297 14.5106 30.297 13.7753C30.297 13.547 30.2775 13.337 30.2427 13.1617H26.86ZM52.0884 13.9234C51.8928 13.4063 51.2894 12.4529 50.0602 12.4529C48.8421 12.4529 47.828 13.39 47.828 14.7654C47.828 16.0607 48.8317 17.0773 50.1771 17.0773C51.265 17.0773 51.8928 16.4297 52.151 16.0525L51.3436 15.5272C51.0743 15.9119 50.7075 16.1667 50.1771 16.1667C49.6502 16.1667 49.2723 15.9309 49.03 15.4661L52.1977 14.1864L52.0884 13.9234ZM48.8588 14.6934C48.8317 13.8018 49.5681 13.3451 50.0957 13.3451C50.5091 13.3451 50.8599 13.547 50.9768 13.8358L48.8588 14.6934ZM46.2842 16.9366H47.3254V10.141H46.2842V16.9366ZM44.5789 12.968H44.5441C44.3102 12.6975 43.8641 12.4529 43.2989 12.4529C42.1129 12.4529 41.0284 13.4695 41.0284 14.7729C41.0284 16.0688 42.1129 17.0773 43.2989 17.0773C43.8641 17.0773 44.3102 16.8306 44.5441 16.552H44.5789V16.8836C44.5789 17.7677 44.0952 18.2428 43.3149 18.2428C42.6787 18.2428 42.2841 17.7943 42.1212 17.4171L41.2157 17.7861C41.4767 18.3991 42.1679 19.1534 43.3149 19.1534C44.5358 19.1534 45.5659 18.4521 45.5659 16.7457V12.5935H44.5789V12.968ZM43.388 16.1667C42.6704 16.1667 42.0697 15.5802 42.0697 14.7729C42.0697 13.9581 42.6704 13.3635 43.388 13.3635C44.0952 13.3635 44.6527 13.9581 44.6527 14.7729C44.6527 15.5802 44.0952 16.1667 43.388 16.1667ZM56.9634 10.141H54.473V16.9366H55.5115V14.3618H56.9634C58.1167 14.3618 59.2478 13.547 59.2478 12.251C59.2478 10.9558 58.1139 10.141 56.9634 10.141ZM56.9906 13.4165H55.5115V11.0863H56.9906C57.7659 11.0863 58.2086 11.7149 58.2086 12.251C58.2086 12.777 57.7659 13.4165 56.9906 13.4165ZM63.4101 12.44C62.6597 12.44 61.8795 12.7634 61.5586 13.4804L62.4802 13.8575C62.6785 13.4804 63.0433 13.358 63.4288 13.358C63.9676 13.358 64.514 13.674 64.5223 14.232V14.3033C64.3344 14.1973 63.9321 14.0403 63.4372 14.0403C62.4447 14.0403 61.4333 14.5738 61.4333 15.5694C61.4333 16.48 62.2463 17.0664 63.1602 17.0664C63.859 17.0664 64.2446 16.7586 64.4868 16.4005H64.5223V16.9258H65.5253V14.319C65.5253 13.1141 64.6038 12.44 63.4101 12.44ZM63.2848 16.164C62.9451 16.164 62.4718 15.9995 62.4718 15.5884C62.4718 15.0624 63.062 14.8606 63.5729 14.8606C64.0302 14.8606 64.2446 14.9591 64.5223 15.0889C64.4409 15.7182 63.8861 16.164 63.2848 16.164ZM69.1795 12.5888L67.9858 15.5347H67.9503L66.7162 12.5888H65.5963L67.4505 16.7056L66.3926 18.9964H67.4777L70.3349 12.5888H69.1795ZM59.8185 16.9366H60.8598V10.141H59.8185V16.9366Z" fill="white"/>
<path d="M6.0855 4.72549C5.92193 4.89266 5.82727 5.15294 5.82727 5.49V17.5129C5.82727 17.8499 5.92193 18.1102 6.0855 18.2774L6.12587 18.3141L13.0263 11.5796V11.4206L6.12587 4.68608L6.0855 4.72549Z" fill="url(#paint0_linear_4012_338)"/>
<path d="M15.3238 13.8256L13.0262 11.5796V11.4206L15.3266 9.17461L15.3781 9.20384L18.1024 10.7172C18.8799 11.1467 18.8799 11.8535 18.1024 12.2857L15.3781 13.7963L15.3238 13.8256Z" fill="url(#paint1_linear_4012_338)"/>
<path d="M15.3782 13.7964L13.0263 11.5001L6.08545 18.2775C6.34368 18.5425 6.76478 18.5744 7.24365 18.3094L15.3782 13.7964Z" fill="url(#paint2_linear_4012_338)"/>
<path d="M15.3782 9.20369L7.24365 4.69069C6.76478 4.42838 6.34368 4.46032 6.08545 4.72535L13.0263 11.4999L15.3782 9.20369Z" fill="url(#paint3_linear_4012_338)"/>
<defs>
<linearGradient id="paint0_linear_4012_338" x1="12.4137" y1="17.6381" x2="3.29247" y2="8.29589" gradientUnits="userSpaceOnUse">
<stop stop-color="#00A0FF"/>
<stop offset="0.0066" stop-color="#00A1FF"/>
<stop offset="0.2601" stop-color="#00BEFF"/>
<stop offset="0.5122" stop-color="#00D2FF"/>
<stop offset="0.7604" stop-color="#00DFFF"/>
<stop offset="1" stop-color="#00E3FF"/>
</linearGradient>
<linearGradient id="paint1_linear_4012_338" x1="19.1148" y1="11.4993" x2="5.64134" y2="11.4993" gradientUnits="userSpaceOnUse">
<stop stop-color="#FFE000"/>
<stop offset="0.4087" stop-color="#FFBD00"/>
<stop offset="0.7754" stop-color="#FFA500"/>
<stop offset="1" stop-color="#FF9C00"/>
</linearGradient>
<linearGradient id="paint2_linear_4012_338" x1="14.0993" y1="10.2519" x2="1.73023" y2="-2.41691" gradientUnits="userSpaceOnUse">
<stop stop-color="#FF3A44"/>
<stop offset="1" stop-color="#C31162"/>
</linearGradient>
<linearGradient id="paint3_linear_4012_338" x1="4.3383" y1="22.2772" x2="9.86164" y2="16.6201" gradientUnits="userSpaceOnUse">
<stop stop-color="#32A071"/>
<stop offset="0.0685" stop-color="#2DA771"/>
<stop offset="0.4762" stop-color="#15CF74"/>
<stop offset="0.8009" stop-color="#06E775"/>
<stop offset="1" stop-color="#00F076"/>
</linearGradient>
</defs>
</svg>
