<svg width="346" height="194" viewBox="0 0 346 194" fill="none" xmlns="http://www.w3.org/2000/svg">
<path fill-rule="evenodd" clip-rule="evenodd" d="M74.0089 144.101H219.303C220.125 144.101 220.926 144.012 221.698 143.844C222.469 144.012 223.271 144.101 224.093 144.101H307.118C313.291 144.101 318.295 139.097 318.295 132.925C318.295 126.752 313.291 121.748 307.118 121.748H297.538C291.366 121.748 286.362 116.744 286.362 110.572C286.362 104.399 291.366 99.3952 297.538 99.3952H327.874C334.047 99.3952 339.051 94.3914 339.051 88.2188C339.051 82.0462 334.047 77.0423 327.874 77.0423H292.748C298.921 77.0423 303.925 72.0384 303.925 65.8658C303.925 59.6932 298.921 54.6894 292.748 54.6894H190.563C196.736 54.6894 201.74 49.6855 201.74 43.5129C201.74 37.3403 196.736 32.3364 190.563 32.3364H99.5551C93.3825 32.3364 88.3786 37.3403 88.3786 43.5129C88.3786 49.6855 93.3825 54.6894 99.5551 54.6894H35.6895C29.5169 54.6894 24.5131 59.6932 24.5131 65.8658C24.5131 72.0384 29.5169 77.0423 35.6895 77.0423H75.6055C81.7781 77.0423 86.782 82.0462 86.782 88.2188C86.782 94.3914 81.7781 99.3952 75.6055 99.3952H11.7399C5.56735 99.3952 0.563477 104.399 0.563477 110.572C0.563477 116.744 5.56735 121.748 11.7399 121.748H74.0089C67.8363 121.748 62.8324 126.752 62.8324 132.925C62.8324 139.097 67.8363 144.101 74.0089 144.101ZM334.261 144.101C340.434 144.101 345.437 139.097 345.437 132.925C345.437 126.752 340.434 121.748 334.261 121.748C328.088 121.748 323.085 126.752 323.085 132.925C323.085 139.097 328.088 144.101 334.261 144.101Z" fill="#DBE5FE"/>
<path d="M248.841 2V11.5798" stroke="#92B7FE" stroke-width="2.5" stroke-linecap="round" stroke-linejoin="round"/>
<path d="M248.841 24.353V33.9329" stroke="#92B7FE" stroke-width="2.5" stroke-linecap="round" stroke-linejoin="round"/>
<path d="M232.875 17.9663H242.455" stroke="#92B7FE" stroke-width="2.5" stroke-linecap="round" stroke-linejoin="round"/>
<path d="M255.228 17.9663H264.807" stroke="#92B7FE" stroke-width="2.5" stroke-linecap="round" stroke-linejoin="round"/>
<path d="M116.321 166.454V172.841" stroke="#92B7FE" stroke-width="2.5" stroke-linecap="round" stroke-linejoin="round"/>
<path d="M116.321 185.614V192" stroke="#92B7FE" stroke-width="2.5" stroke-linecap="round" stroke-linejoin="round"/>
<path d="M103.548 179.227H109.934" stroke="#92B7FE" stroke-width="2.5" stroke-linecap="round" stroke-linejoin="round"/>
<path d="M122.707 179.227H129.094" stroke="#92B7FE" stroke-width="2.5" stroke-linecap="round" stroke-linejoin="round"/>
<path fill-rule="evenodd" clip-rule="evenodd" d="M230.019 139.513C232.24 136.793 234.236 133.95 236.007 131.006C239.902 124.533 242.71 117.578 244.426 110.408C246.161 103.156 246.78 95.6836 246.278 88.2657C245.839 81.7929 244.548 75.3615 242.399 69.1542C240.268 62.996 237.294 57.0584 233.474 51.5197C231.198 48.2193 228.621 45.0606 225.744 42.0813C221.519 37.7072 216.886 33.9677 211.962 30.8651C206.672 27.5315 201.047 24.9331 195.237 23.073C187.959 20.7434 180.39 19.5716 172.819 19.563C166.928 19.5564 161.037 20.254 155.282 21.6586C148.804 23.2398 142.498 25.7169 136.56 29.0937C131.341 32.0621 126.406 35.7258 121.889 40.0872C116.213 45.5682 111.615 51.7467 108.1 58.359C104.658 64.8327 102.254 71.7223 100.891 78.7802C99.4876 86.0517 99.1894 93.502 100.001 100.86C101.053 110.397 103.969 119.78 108.759 128.419C111.824 133.947 115.656 139.171 120.258 143.935C127.563 151.499 136.092 157.165 145.227 160.922C156.335 165.491 168.34 167.235 180.129 166.134C190.024 165.21 199.768 162.282 208.703 157.337" fill="white"/>
<path d="M230.019 139.513C232.24 136.793 234.236 133.95 236.007 131.006C239.902 124.533 242.71 117.578 244.426 110.408C246.161 103.156 246.78 95.6836 246.278 88.2657C245.839 81.7929 244.548 75.3615 242.399 69.1542C240.268 62.996 237.294 57.0584 233.474 51.5197C231.198 48.2193 228.621 45.0606 225.744 42.0813C221.519 37.7072 216.886 33.9677 211.962 30.8651C206.672 27.5315 201.047 24.9331 195.237 23.073C187.959 20.7434 180.39 19.5716 172.819 19.563C166.928 19.5564 161.037 20.254 155.282 21.6586C148.804 23.2398 142.498 25.7169 136.56 29.0937C131.341 32.0621 126.406 35.7258 121.889 40.0872C116.213 45.5682 111.615 51.7467 108.1 58.359C104.658 64.8327 102.254 71.7223 100.891 78.7802C99.4876 86.0517 99.1894 93.502 100.001 100.86C101.053 110.397 103.969 119.78 108.759 128.419C111.824 133.947 115.656 139.171 120.258 143.935C127.563 151.499 136.092 157.165 145.227 160.922C156.335 165.491 168.34 167.235 180.129 166.134C190.024 165.21 199.768 162.282 208.703 157.337" stroke="#3666F7" stroke-width="2.5" stroke-linecap="round" stroke-linejoin="round"/>
<path fill-rule="evenodd" clip-rule="evenodd" d="M214.036 154.285C218.676 151.299 222.802 147.573 225.486 144.566Z" fill="white"/>
<path d="M214.036 154.285C218.676 151.299 222.802 147.573 225.486 144.566" stroke="#3666F7" stroke-width="2.5" stroke-linecap="round"/>
<path d="M240.06 97.1869C239.603 97.195 239.146 97.1991 238.687 97.1991C198.366 97.1991 165.351 65.7638 162.585 25.9497C130.491 31.012 105.942 58.9244 105.942 92.5989C105.942 129.861 136 160.067 173.078 160.067C208.621 160.067 237.713 132.309 240.06 97.1869Z" fill="#EFF4FF"/>
<path fill-rule="evenodd" clip-rule="evenodd" d="M147.492 90.4103C145.539 88.6067 142.509 88.7452 140.725 90.7196C138.941 92.694 139.078 95.7567 141.031 97.5603L163.574 118.377C166.308 120.902 170.55 120.708 173.048 117.944C173.152 117.827 173.152 117.827 173.253 117.706L205.424 78.5931C207.115 76.5369 206.837 73.484 204.803 71.7743C202.769 70.0646 199.749 70.3455 198.057 72.4018L167.812 109.174L147.492 90.4103Z" fill="white" stroke="#3666F7" stroke-width="2.5" stroke-linecap="round"/>
<path fill-rule="evenodd" clip-rule="evenodd" d="M150.367 32.996C147.254 34.1642 144.212 35.5836 141.274 37.255C136.708 39.8522 132.391 43.0577 128.439 46.8737C126.819 48.4379 125.3 50.0671 123.881 51.7532M119.49 57.6232C118.362 59.3282 117.324 61.076 116.375 62.8599C115.675 64.1774 115.024 65.5147 114.422 66.8688" fill="white"/>
<path d="M150.806 34.1664C151.453 33.9239 151.78 33.2033 151.538 32.5569C151.295 31.9106 150.575 31.5832 149.928 31.8257L150.806 34.1664ZM141.274 37.255L141.892 38.3415L141.274 37.255ZM128.439 46.8737L127.571 45.9745L128.439 46.8737ZM122.925 50.9484C122.48 51.4766 122.548 52.2651 123.076 52.7096C123.604 53.1541 124.393 53.0863 124.837 52.5581L122.925 50.9484ZM120.533 58.3131C120.914 57.7374 120.756 56.9618 120.18 56.5808C119.604 56.1998 118.829 56.3577 118.448 56.9334L120.533 58.3131ZM116.375 62.8599L117.479 63.4466L117.479 63.4466L116.375 62.8599ZM113.279 66.361C112.999 66.9918 113.283 67.7305 113.914 68.011C114.545 68.2915 115.283 68.0075 115.564 67.3767L113.279 66.361ZM149.928 31.8257C146.753 33.0168 143.652 34.4642 140.656 36.1685L141.892 38.3415C144.772 36.7031 147.754 35.3116 150.806 34.1664L149.928 31.8257ZM140.656 36.1685C136 38.8169 131.598 42.0852 127.571 45.9745L129.308 47.7728C133.183 44.0301 137.416 40.8874 141.892 38.3415L140.656 36.1685ZM127.571 45.9745C125.92 47.5687 124.371 49.2294 122.925 50.9484L124.837 52.5581C126.229 50.9048 127.719 49.3071 129.308 47.7728L127.571 45.9745ZM118.448 56.9334C117.297 58.6719 116.239 60.4541 115.272 62.2732L117.479 63.4466C118.409 61.6979 119.427 59.9845 120.533 58.3131L118.448 56.9334ZM115.272 62.2732C114.557 63.6167 113.893 64.9802 113.279 66.361L115.564 67.3767C116.154 66.0491 116.793 64.7382 117.479 63.4466L115.272 62.2732Z" fill="#92B7FE"/>
</svg>
